<svg xmlns="http://www.w3.org/2000/svg" viewBox="0 0 47.34 47.34"><defs><style>.a{fill:#57f79f;stroke:#57f79f;stroke-miterlimit:10;stroke-width:2px;}.b{fill:#5454f8;}</style></defs><title>favicon</title><rect class="a" x="1" y="1" width="45.34" height="45.34"/><path class="b" d="M81.87,189.17v-1h3.36v2.11h1.69v-2.11h6.72v2.11H95.3v-2.11h8.42v2.11h1.66v10.49h1.7v2.08h-6.72v-2.08H102V190.24H97v10.49h1.66v2.08H92v-2.08h1.69V190.24h-5v10.49h1.69v2.08H83.56v-2.08h1.67V190.24H81.87Z" transform="translate(-80.87 -184.13)"/><path class="b" d="M108.72,189.17v-1h8.41v2.11h-1.7v4.17h1.7v4.23h1.66v-2.11h1.7v-2.12h1.66v-2.08h1.7v-2.09h-1.7v-2.11h5.06v2.11h-1.7v2.09h-1.66v2.08h-1.7v2.12h-1.66v2.11h-1.7v2.09h-1.66v2.08h-1.7v2.12h-1.66V207h-1.7v2.09h-3.35V207h3.35v-2.11h1.7v-2.12h1.66v-4.17h-1.66v-4.23h-1.7v-2.08h-1.66v-2.09h-1.69Z" transform="translate(-80.87 -184.13)"/><path class="b" d="M85.58,209.62v-1H86.8v6h2.47v2H86.8v9.92h2.47v-4h1.24v4H89.27v2H85.58v-2H84.33v-9.92H81.87v-2h2.46v-4h1.25Z" transform="translate(-80.87 -184.13)"/><path class="b" d="M95.55,215.56v-1h6.17v2H103v5.94h-7.4v4h4.93v-2H103v2h-1.23v2H94.3v-2H93.08v-9.92h2.47Zm4.93,3v-2H95.55v3.94h4.93Z" transform="translate(-80.87 -184.13)"/><path class="b" d="M107.37,215.56v-1h6.18v2h1.22v2H112.3v-2h-4.93v9.92h4.93v-2h2.47v2h-1.22v2h-7.42v-2H104.9v-9.92h2.47Z" transform="translate(-80.87 -184.13)"/><path class="b" d="M116.11,207.61v-1h3.69v10h1.25v-2h3.69v2H126v9.92h1.23v2h-4.94v-2h1.24v-9.92h-2.46v2H119.8v9.92h-3.69v-2h1.23V208.63h-1.23Z" transform="translate(-80.87 -184.13)"/></svg>