<svg xmlns="http://www.w3.org/2000/svg" viewBox="0 0 117.22 43.91"><defs><style>.a{fill:#2c3e50;stroke:#fff;stroke-width:0.25px;}.a,.b{stroke-miterlimit:10;}.b{fill:none;stroke:#5454f8;stroke-width:3px;}</style></defs><title>heading</title><path class="a" d="M102.24,213.32c-.06.22-.12.42-.17.58s-.09.32-.13.46l-.15.39a3.89,3.89,0,0,0-.16.41,4.5,4.5,0,0,1-1.08,1.71,2,2,0,0,1-1.38.52,2.26,2.26,0,0,1-1.39-.47,5,5,0,0,1-1.26-1.52c-.13-.23-.26-.47-.38-.73s-.26-.54-.39-.86a21.3,21.3,0,0,1-1.88,1.27c-.66.4-1.36.78-2.1,1.15l-1-1.82a25.09,25.09,0,0,0,4.32-2.52c-.17-.67-.33-1.43-.48-2.27s-.27-1.78-.37-2.81h-3.7v2.37l1.44-.3,1.35-.31.13,1,.1.91-1.49.32q-.75.18-1.53.33v3.66a3.1,3.1,0,0,1-.15,1.06,1.51,1.51,0,0,1-.47.66,1.91,1.91,0,0,1-.81.38,9.45,9.45,0,0,1-1.19.2l-1.13.12-.61-1.86,1.39-.1a3.24,3.24,0,0,0,.56-.08.61.61,0,0,0,.3-.17.59.59,0,0,0,.11-.29c0-.12,0-.27,0-.47v-2.69l-3.45.67-.31-2,1.87-.33,1.89-.34v-2.77H85V205h3.57v-2.18q-.73.1-1.47.18l-1.48.16-.16-1.82c1.32-.11,2.59-.27,3.8-.47s2.35-.44,3.42-.7l.32,1.82-1.19.27-1.26.24V205h3.56a5.34,5.34,0,0,1-.05-.69l0-.7c0-.9-.08-1.7-.11-2.41s-.06-1.22-.07-1.53l2,.08c0,.31,0,.79,0,1.47s.07,1.44.12,2.31c0,.27,0,.52,0,.75s0,.48.06.72H102v1.86H96.25c.06.75.13,1.44.21,2.06s.17,1.19.28,1.72a16,16,0,0,0,1.61-1.7A18.66,18.66,0,0,0,99.71,207l1.54,1a23.38,23.38,0,0,1-1.83,2.43,20.78,20.78,0,0,1-2.15,2.15,7.34,7.34,0,0,0,.88,1.82,2,2,0,0,0,.53.67.87.87,0,0,0,.49.18.72.72,0,0,0,.48-.23,2.84,2.84,0,0,0,.51-1.06c.11-.32.2-.59.26-.82s.13-.51.2-.84Zm-2.35-8.69c-.21-.25-.46-.52-.73-.81s-.54-.59-.83-.88-.57-.59-.86-.87-.56-.55-.81-.78l1.21-1.23.84.73q.45.39.87.81l.82.82q.41.41.69.75Z" transform="translate(-81.87 -198.86)"/><path class="a" d="M121.22,202.29c0,.11,0,.36,0,.75s0,.86,0,1.43,0,1.2-.06,1.88,0,1.38-.06,2.09,0,1.4-.07,2.09,0,1.3-.07,1.86,0,1,0,1.39,0,.61,0,.71a4.73,4.73,0,0,1-.21,1.23,1.6,1.6,0,0,1-.53.77,2.13,2.13,0,0,1-.92.43,8.58,8.58,0,0,1-1.37.2l-1.68.12-.62-2.06,1.66-.12c.35,0,.63-.06.85-.1a1,1,0,0,0,.54-.23.94.94,0,0,0,.28-.45,4.41,4.41,0,0,0,.1-.8l.29-9.19h-4.09c-.2.47-.41.91-.63,1.35s-.45.86-.7,1.27l-1.54-1V217h-7.19V202.24h2.1c.14-.49.29-1,.43-1.6s.24-1.07.32-1.49l2.06.35c-.07.36-.16.79-.29,1.29s-.26,1-.4,1.45h3v3.28c.29-.47.57-1,.84-1.54s.51-1.12.74-1.7.42-1.14.59-1.7.31-1.08.42-1.57l1.94.45a29.22,29.22,0,0,1-.87,2.83ZM107,204.21v4.18h3.39v-4.18ZM110.36,215v-4.61H107V215Zm6-3.32c-.17-.32-.38-.67-.62-1.06s-.5-.79-.76-1.18-.53-.77-.79-1.13-.51-.67-.72-.93l1.39-1.21c.25.28.52.59.8.94s.57.72.85,1.1.56.76.81,1.13.49.71.69,1Z" transform="translate(-81.87 -198.86)"/><path class="a" d="M91.26,228.81l-.91.37-1.11.43V235a3.87,3.87,0,0,1-.11,1,1.17,1.17,0,0,1-.38.6,1.59,1.59,0,0,1-.69.33q-.42.09-1.08.18l-.87.1-.61-2.08.89-.08a2.46,2.46,0,0,0,.44-.06.46.46,0,0,0,.39-.39,1.78,1.78,0,0,0,0-.44v-3.84l-1.35.46-1,.33L84.29,229l1.31-.4,1.66-.55v-3.36H85.18V222.6h2.08v-3.29l2,.08v3.21h1.7v2.06h-1.7v2.65L90,227l.66-.25Zm10.37,8.93c-1.16-.54-2.2-1.07-3.1-1.58a16,16,0,0,1-2.44-1.71A21.16,21.16,0,0,1,93.64,236c-.91.49-2,1-3.21,1.57l-1-2.08c1.07-.42,2-.83,2.87-1.24A19.13,19.13,0,0,0,94.58,233a15,15,0,0,1-2.39-4.08l1.66-.91H91.38v-1.9H95.2v-2.39H91.36v-1.88H95.2V219.2l2,.07v2.52h4.51v1.88H97.2v2.39h3.54v2a21.09,21.09,0,0,1-1.36,2.85,11.12,11.12,0,0,1-1.77,2.3,12.86,12.86,0,0,0,2.06,1.27,19.1,19.1,0,0,0,2.67,1.1ZM93.89,228a22.23,22.23,0,0,0,1,2.07,9.77,9.77,0,0,0,1.22,1.73,10.11,10.11,0,0,0,1.5-1.75,8.9,8.9,0,0,0,1-2Z" transform="translate(-81.87 -198.86)"/><path class="a" d="M114.43,225.15a19.63,19.63,0,0,0,3.13,4.37,29.64,29.64,0,0,0,4.53,3.85l-1.15,2.09a36.29,36.29,0,0,1-3.9-3.38,21.47,21.47,0,0,1-3.06-3.86v9h-2v-9a24.14,24.14,0,0,1-3,3.9,35.48,35.48,0,0,1-3.84,3.5l-1.29-2a25.48,25.48,0,0,0,7.66-8.41H105v-2h7v-3.86l2,.08v3.78h3.82c-.17-.19-.37-.41-.6-.64s-.45-.46-.69-.68-.47-.45-.71-.66l-.65-.57,1.22-1.34c.2.14.41.32.65.52l.71.64.72.68q.36.33.63.63l-1.18,1.42h3.16v2Z" transform="translate(-81.87 -198.86)"/><line class="b" y1="42.41" x2="117.22" y2="42.41"/><path class="a" d="M125.78,236.81l1.3-7c.25-1.25.4-2.35.52-3.24h2l-.2,1.7h0a3.91,3.91,0,0,1,3.29-1.91,2,2,0,0,1,2.19,2,4,4,0,0,1,3.37-2,2.25,2.25,0,0,1,2.28,2.55,12,12,0,0,1-.19,1.81l-1.15,6.07H137l1.1-5.88a7.17,7.17,0,0,0,.15-1.36c0-.77-.31-1.28-1.08-1.28-1,0-2.14,1.31-2.54,3.43l-1,5.09h-2.27l1.12-5.93a6.73,6.73,0,0,0,.15-1.29c0-.7-.22-1.3-1.06-1.3-1,0-2.21,1.44-2.58,3.47l-.94,5.05Z" transform="translate(-81.87 -198.86)"/><path class="a" d="M144.74,226.59l.61,5c.14,1.06.23,1.78.3,2.53h0c.24-.71.5-1.4.94-2.49l2.08-5.07h2.45l-3.62,7.72a18.45,18.45,0,0,1-3.65,5.57,6.36,6.36,0,0,1-2.7,1.56l-.65-2a6.32,6.32,0,0,0,1.69-.89,6.1,6.1,0,0,0,1.71-2,.68.68,0,0,0,.06-.49l-1.72-9.48Z" transform="translate(-81.87 -198.86)"/><path class="a" d="M151.07,235.56a1.69,1.69,0,0,1,1.62-1.74,1.38,1.38,0,0,1,1.41,1.49,1.64,1.64,0,0,1-1.64,1.72A1.37,1.37,0,0,1,151.07,235.56Zm1.35-7.13A1.69,1.69,0,0,1,154,226.7a1.38,1.38,0,0,1,1.42,1.48,1.64,1.64,0,0,1-1.64,1.72A1.37,1.37,0,0,1,152.42,228.43Z" transform="translate(-81.87 -198.86)"/><path class="a" d="M155.88,235.56a1.69,1.69,0,0,1,1.62-1.74,1.38,1.38,0,0,1,1.41,1.49,1.65,1.65,0,0,1-1.64,1.72A1.37,1.37,0,0,1,155.88,235.56Zm1.35-7.13a1.68,1.68,0,0,1,1.62-1.73,1.38,1.38,0,0,1,1.42,1.48,1.64,1.64,0,0,1-1.65,1.72A1.37,1.37,0,0,1,157.23,228.43Z" transform="translate(-81.87 -198.86)"/><path class="a" d="M165.71,223.81l-.53,2.78h2.19l-.35,1.78h-2.19l-.85,4.47a6.73,6.73,0,0,0-.17,1.33.78.78,0,0,0,.87.88,4.87,4.87,0,0,0,.78-.05l-.23,1.83a5.26,5.26,0,0,1-1.52.19c-1.59,0-2.32-.88-2.32-2.06a9.49,9.49,0,0,1,.21-1.82l.92-4.77H161.2l.33-1.78h1.33l.42-2.2Z" transform="translate(-81.87 -198.86)"/><path class="a" d="M174.53,236.26a7.49,7.49,0,0,1-3.34.75c-2.69,0-3.89-1.72-3.89-4.08,0-3,2.07-6.55,5.46-6.55a2.77,2.77,0,0,1,3.05,2.78c0,2.64-2.6,3.55-6.21,3.47a3.3,3.3,0,0,0,.24,1.49,2,2,0,0,0,1.91,1,5.43,5.43,0,0,0,2.56-.63Zm-2.08-8.08c-1.32,0-2.27,1.28-2.61,2.69,2.22,0,3.77-.38,3.77-1.64A1,1,0,0,0,172.45,228.18Z" transform="translate(-81.87 -198.86)"/><path class="a" d="M183.08,236.52a6.44,6.44,0,0,1-2.58.49,3.63,3.63,0,0,1-3.8-4c0-3.5,2.5-6.65,6.14-6.65a4.65,4.65,0,0,1,1.81.33l-.6,1.86a3.28,3.28,0,0,0-1.3-.26c-2.2,0-3.62,2.27-3.62,4.44,0,1.46.76,2.33,2,2.33a4.91,4.91,0,0,0,1.89-.41Z" transform="translate(-81.87 -198.86)"/><path class="a" d="M184.6,236.81,187.4,222h2.36l-1.16,6h0a4,4,0,0,1,3.17-1.69,2.28,2.28,0,0,1,2.33,2.58,10,10,0,0,1-.2,1.81l-1.14,6h-2.35l1.13-5.92a7.89,7.89,0,0,0,.13-1.33c0-.73-.32-1.25-1.12-1.25-1.07,0-2.29,1.34-2.67,3.34l-1,5.16Z" transform="translate(-81.87 -198.86)"/></svg>